<?xml version="1.0" encoding="UTF-8" standalone="no"?>
<svg
   xmlns:dc="http://purl.org/dc/elements/1.1/"
   xmlns:cc="http://creativecommons.org/ns#"
   xmlns:rdf="http://www.w3.org/1999/02/22-rdf-syntax-ns#"
   xmlns:svg="http://www.w3.org/2000/svg"
   xmlns="http://www.w3.org/2000/svg"
   viewBox="0 0 744 648"
   xml:space="preserve"
   id="svg2"
   version="1.1"><metadata
     id="metadata8"><rdf:RDF><cc:Work
         rdf:about=""><dc:format>image/svg+xml</dc:format><dc:type
           rdf:resource="http://purl.org/dc/dcmitype/StillImage" /></cc:Work></rdf:RDF></metadata><defs
     id="defs6" /><g
     transform="matrix(1.3333333,0,0,-1.3333333,0,648)"
     id="g10"><g
       transform="scale(0.1)"
       id="g12"><path
         id="path14"
         style="fill:#6e9f3b;fill-opacity:1;fill-rule:nonzero;stroke:none"
         d="m 4592.94,2430.01 c 0,584.8 -825.65,1078.91 -1802.95,1078.91 -977.31,0 -1802.959,-494.11 -1802.959,-1078.91 0,-584.8 825.649,-1078.9 1802.959,-1078.9 977.3,0 1802.95,494.1 1802.95,1078.9" /><path
         id="path16"
         style="fill:#1f4b7f;fill-opacity:1;fill-rule:nonzero;stroke:none"
         d="m 2789.99,1351.11 c 977.3,0 1802.95,494.1 1802.95,1078.9 0,61.69 -9.27,122.33 -26.86,181.53 -410.52,-221.91 -1002.76,-393.24 -1340.9,-197.38 -280.5,153.34 -299.2,440.81 -673.16,440.81 -299.22,0 -504.9,-210.82 -785.43,-249.15 -354.23,-58.56 -557.31,-53.57 -734.25,59.6 -29.58,-76.05 -45.309,-154.86 -45.309,-235.41 0,-584.8 825.649,-1078.9 1802.959,-1078.9" /><path
         id="path18"
         style="fill:#743a19;fill-opacity:1;fill-rule:nonzero;stroke:none"
         d="m 2789.99,1423.5 c -650.89,0 -1230.15,230.97 -1513.15,559.37 -116.83,135.57 -183.28,287.72 -183.28,447.14 0,139.7 51.11,273.8 142.32,396.07 265.04,355.29 869.99,610.45 1554.11,610.45 683.58,0 1288.16,-254.78 1553.52,-609.66 91.58,-122.48 142.94,-256.86 142.94,-396.86 0,-159.61 -66.63,-311.9 -183.71,-447.59 C 4019.55,1654.26 3440.52,1423.5 2789.99,1423.5 Z m 2342.34,1006.51 c 0,132.51 -22.05,264.14 -64.51,391.55 h 0.22 c -0.68,2.04 -1.48,4.06 -2.18,6.08 -0.5,1.53 -0.93,3.06 -1.45,4.59 h -0.16 c -43.61,127.15 -107.54,250.03 -191.17,365.05 -138.75,190.84 -327.31,357.76 -560.47,496.08 -422.87,250.89 -963.61,389.08 -1522.62,389.08 -559.01,0 -1099.78,-138.19 -1522.6,-389.08 C 1034.23,3555.04 845.66,3388.12 706.887,3197.28 623.254,3082.26 559.32,2959.38 515.754,2832.23 h -0.184 c -0.644,-1.88 -1.168,-3.75 -1.797,-5.63 -0.57,-1.68 -1.23,-3.35 -1.8,-5.04 h 0.183 c -42.445,-127.41 -64.515,-259.04 -64.515,-391.55 0,-151.47 28.82,-301.81 84.07,-446.01 h -0.328 C 574.137,1872.42 632.887,1764.53 706.887,1662.77 845.613,1471.93 1034.23,1305 1267.34,1166.68 1690.21,915.762 2230.98,777.559 2789.99,777.559 c 559.01,0 1099.75,138.203 1522.62,389.121 233.16,138.32 421.72,305.21 560.47,496.09 74.01,101.76 132.75,209.65 175.5,321.23 h -0.33 c 55.29,144.2 84.08,294.54 84.08,446.01" /><path
         id="path20"
         style="fill:#ffffff;fill-opacity:1;fill-rule:nonzero;stroke:none"
         d="m 1121.66,3063.67 c 18.28,-15.1 27.53,-35.38 27.75,-60.86 0.23,-25.52 -8.47,-48.93 -26.08,-70.26 -10.22,-12.39 -19.62,-21.55 -28.22,-27.47 l -32.84,38.84 c 5.41,4.77 9.76,9.14 13.04,13.09 2.12,2.31 4.88,5.79 8.29,10.51 6.09,8.27 9.18,16.94 9.27,25.98 0.07,9.03 -3.16,16.29 -9.74,21.7 l -212.989,175.81 39.406,47.74 212.113,-175.08" /><path
         id="path22"
         style="fill:#ffffff;fill-opacity:1;fill-rule:nonzero;stroke:none"
         d="m 1243.34,3421.89 61.81,-128.35 38.28,27 z m 83.95,-176.76 34.64,-75.81 -53.81,-37.94 -147.09,332.35 71.1,50.13 262.77,-250.81 -54.34,-38.29 -59.29,58.42 -53.98,-38.05" /><path
         id="path24"
         style="fill:#ffffff;fill-opacity:1;fill-rule:nonzero;stroke:none"
         d="m 1709.76,3373.09 -58.62,-23.73 -133.85,330.6 84.11,34.05 150.79,-215.37 -43.7,258.73 80.8,32.72 133.85,-330.59 -58.61,-23.74 -84.11,207.74 33.26,-228.33 -47.15,-19.09 -140.67,184.23 83.9,-207.22" /><path
         id="path26"
         style="fill:#ffffff;fill-opacity:1;fill-rule:nonzero;stroke:none"
         d="m 2093.44,3506.29 -76.74,348.32 175.81,38.73 11.62,-52.77 -114.04,-25.13 20.93,-95 83.32,18.36 11.64,-52.77 -83.34,-18.36 20.93,-94.99 114.05,25.12 11.63,-52.78 -175.81,-38.73" /><path
         id="path28"
         style="fill:#ffffff;fill-opacity:1;fill-rule:nonzero;stroke:none"
         d="m 2627.95,3676.98 c 2.65,-24.71 -3.03,-46.53 -17.01,-65.48 -9.18,-12.81 -22.87,-22.5 -41.1,-29.06 -9.75,-3.54 -21.3,-5.9 -34.63,-7.09 -24.67,-2.19 -45.57,1.19 -62.72,10.14 -14.31,7.29 -26.06,17.9 -35.24,31.84 -9.19,13.93 -15.29,30.29 -18.3,49.06 l 59.66,9.02 c 4.5,-20.47 12.27,-34.89 23.32,-43.28 8.18,-6.35 17.16,-8.9 26.9,-7.65 13.74,1.59 24.22,8.34 31.45,20.23 3.74,5.86 5.15,13.88 4.25,24.09 -1.32,14.74 -10.51,28.7 -27.57,41.85 -13.34,8.91 -33.35,22.28 -60.02,40.11 -22.42,15.34 -38.56,29.44 -48.43,42.28 -10.7,14.48 -16.83,30.7 -18.43,48.65 -2.88,32.33 7.71,57.95 31.8,76.86 14.87,11.42 33.99,18.17 57.32,20.24 22.44,2 42.05,-0.54 58.8,-7.62 13.03,-5.5 23.89,-13.86 32.63,-25.08 8.72,-11.21 14.55,-24.5 17.48,-39.85 l -59.51,-14.72 c -3.07,14.39 -8.96,25.29 -17.68,32.7 -6.3,5.34 -14.89,7.53 -25.77,6.56 -11.56,-1.03 -19.95,-6.16 -25.18,-15.37 -4.27,-7.43 -5.93,-16.33 -5.01,-26.72 1.45,-16.24 11.13,-32.03 29.06,-47.38 6.8,-5.87 16.8,-12.6 30.02,-20.18 15.6,-9.08 25.91,-15.5 30.94,-19.24 16.73,-11.84 29.89,-23.81 39.47,-35.89 4.53,-5.7 8.26,-10.98 11.17,-15.85 7.11,-12.13 11.23,-23.19 12.33,-33.17" /><path
         id="path30"
         style="fill:#ffffff;fill-opacity:1;fill-rule:nonzero;stroke:none"
         d="m 3112.02,3844.56 c 1.91,20.57 -9.12,31.98 -33.1,34.23 l -37.99,3.54 -10.6,-113.56 37.99,-3.55 c 9.98,-0.92 18.74,1.3 26.3,6.68 7.57,5.39 11.75,12.34 12.55,20.83 z m -29.66,89.04 c 35.07,-3.29 60.09,-13.9 75,-31.86 13.09,-15.7 18.44,-36.39 16.04,-62.06 l -4.83,-51.54 c -2.33,-25.11 -15.55,-45.31 -39.61,-60.57 l 32.18,-159.27 -68.11,6.36 -25.67,137.24 c -1.78,0.16 -3.68,0.34 -5.68,0.53 l -36.3,3.39 -12.5,-133.67 -62.96,5.89 33.15,354.83 99.29,-9.27" /><path
         id="path32"
         style="fill:#ffffff;fill-opacity:1;fill-rule:nonzero;stroke:none"
         d="m 3389.79,3526.58 -61.94,12.79 72.09,349.01 61.95,-12.79 -72.1,-349.01" /><path
         id="path34"
         style="fill:#ffffff;fill-opacity:1;fill-rule:nonzero;stroke:none"
         d="m 3625.41,3463.48 44.35,361.46 62.72,-21.44 -40.05,-279.89 140,245.73 62.76,-21.45 -187.46,-312.56 -82.32,28.15" /><path
         id="path36"
         style="fill:#ffffff;fill-opacity:1;fill-rule:nonzero;stroke:none"
         d="m 3938.01,3338.94 173.55,311.58 157.28,-87.58 -26.3,-47.21 -102.03,56.81 -47.33,-84.98 74.55,-41.51 -26.3,-47.21 -74.55,41.52 -47.31,-84.99 102.01,-56.82 -26.3,-47.21 -157.27,87.6" /><path
         id="path38"
         style="fill:#ffffff;fill-opacity:1;fill-rule:nonzero;stroke:none"
         d="m 4518.32,3264.46 c 13.88,15.31 11.89,31.08 -5.96,47.25 l -28.26,25.63 -76.6,-84.51 28.26,-25.62 c 7.44,-6.75 15.8,-10.23 25.08,-10.45 9.29,-0.23 16.79,2.83 22.51,9.14 z m 29.68,89.05 c 26.11,-23.67 39.74,-47.17 40.89,-70.48 1.06,-20.41 -7.07,-40.17 -24.39,-59.29 l -34.76,-38.34 c -16.93,-18.69 -39.62,-26.93 -68.02,-24.72 l -69.79,-146.72 -50.67,45.93 61.75,125.22 c -1.32,1.19 -2.72,2.47 -4.21,3.81 l -27.03,24.49 -90.16,-99.45 -46.84,42.47 239.34,264.05 73.89,-66.97" /><path
         id="path40"
         style="fill:#ffffff;fill-opacity:1;fill-rule:nonzero;stroke:none"
         d="m 966.316,1949.28 c 5.243,3.1 8.586,7.59 10.075,13.43 1.5,5.83 0.683,11.35 -2.422,16.61 -3.117,5.21 -7.606,8.59 -13.481,10.13 -5.871,1.57 -11.418,0.78 -16.64,-2.34 l -119.614,-71.06 c -5.226,-3.1 -8.574,-7.59 -10.015,-13.51 -1.446,-5.88 -0.614,-11.45 2.484,-16.66 3.106,-5.26 7.578,-8.61 13.418,-10.08 5.84,-1.5 11.371,-0.68 16.598,2.42 z m 40.944,48.63 c 8.63,-14.53 10.85,-29.92 6.67,-46.17 -4.18,-16.23 -13.49,-28.65 -27.895,-37.21 l -119.258,-70.86 c -14.527,-8.63 -29.922,-10.84 -46.168,-6.66 -16.238,4.18 -28.644,13.5 -37.207,27.89 -8.632,14.51 -10.847,29.89 -6.621,46.08 4.211,16.17 13.535,28.57 27.953,37.13 l 119.243,70.85 c 14.539,8.64 29.918,10.84 46.164,6.66 16.242,-4.16 28.613,-13.41 37.119,-27.71" /><path
         id="path42"
         style="fill:#ffffff;fill-opacity:1;fill-rule:nonzero;stroke:none"
         d="m 1006.1,1584.24 c -12.061,11.83 -18.162,26.09 -18.303,42.71 -0.152,16.64 5.66,30.92 17.403,42.89 l 137.72,140.18 26.76,-26.29 -137.43,-139.9 c -4.26,-4.34 -6.35,-9.53 -6.24,-15.63 0.09,-6.05 2.32,-11.21 6.65,-15.49 4.35,-4.25 9.53,-6.34 15.55,-6.3 6.01,0.04 11.16,2.26 15.43,6.6 l 137.43,139.88 28.5,-28.01 -137.73,-140.17 c -11.92,-12.15 -26.21,-18.21 -42.85,-18.17 -16.64,0.04 -30.93,5.96 -42.89,17.7" /><path
         id="path44"
         style="fill:#ffffff;fill-opacity:1;fill-rule:nonzero;stroke:none"
         d="m 1365,1571.35 -33.82,22.71 21.49,32.01 99.3,-66.75 -21.48,-31.98 -33.67,22.62 -120.24,-178.91 -31.81,21.35 120.23,178.95" /><path
         id="path46"
         style="fill:#ffffff;fill-opacity:1;fill-rule:nonzero;stroke:none"
         d="m 1524.68,1273.01 20.84,-10.02 c 5.47,-2.66 11.05,-2.91 16.74,-0.78 5.68,2.15 9.82,5.9 12.4,11.25 l 57.75,119.84 c 2.64,5.49 2.98,11.09 1.03,16.86 -1.97,5.74 -5.62,9.9 -10.99,12.5 l -20.82,10.02 z m 83.94,-15.02 c -7.27,-15.1 -18.79,-25.45 -34.55,-31.06 -15.76,-5.62 -31.14,-4.82 -46.12,2.41 l -54.26,26.15 110.4,229.1 54.27,-26.15 c 15.09,-7.29 25.33,-18.83 30.7,-34.61 5.37,-15.8 4.45,-31.19 -2.76,-46.17 l -57.68,-119.67" /><path
         id="path48"
         style="fill:#ffffff;fill-opacity:1;fill-rule:nonzero;stroke:none"
         d="m 1890.64,1295.2 c 1.97,5.74 1.63,11.32 -1.01,16.73 -2.66,5.43 -6.86,9.11 -12.62,11.08 -5.75,1.97 -11.38,1.64 -16.85,-1 -5.47,-2.64 -9.18,-6.81 -11.15,-12.56 l -45.05,-131.64 c -1.96,-5.76 -1.59,-11.35 1.11,-16.77 2.72,-5.42 6.97,-9.15 12.71,-11.12 5.76,-1.95 11.34,-1.62 16.75,1.04 5.41,2.65 9.1,6.85 11.07,12.61 z m -0.32,63.55 c 15.98,-5.47 27.64,-15.74 34.99,-30.84 7.35,-15.08 8.3,-30.57 2.87,-46.43 l -44.92,-131.25 c -5.47,-15.97 -15.75,-27.63 -30.84,-34.96 -15.08,-7.36 -30.55,-8.3 -46.41,-2.89 -16,5.49 -27.64,15.74 -34.9,30.82 -7.29,15.06 -8.21,30.51 -2.77,46.37 l 44.91,131.25 c 5.47,16 15.75,27.66 30.84,35 15.08,7.32 30.49,8.3 46.23,2.93" /><path
         id="path50"
         style="fill:#ffffff;fill-opacity:1;fill-rule:nonzero;stroke:none"
         d="m 2156.03,1222.13 c 1.35,5.92 0.43,11.44 -2.77,16.54 -3.21,5.1 -7.77,8.32 -13.7,9.67 -5.94,1.39 -11.48,0.47 -16.65,-2.73 -5.16,-3.17 -8.42,-7.74 -9.79,-13.68 l -31.04,-135.6 c -1.35,-5.94 -0.4,-11.45 2.87,-16.56 3.26,-5.12 7.86,-8.36 13.79,-9.73 5.93,-1.35 11.45,-0.43 16.55,2.77 5.1,3.21 8.33,7.78 9.68,13.69 z m -6.98,63.16 c 16.48,-3.77 29.16,-12.77 38.04,-27.01 8.87,-14.24 11.44,-29.53 7.7,-45.86 l -30.95,-135.21 c -3.78,-16.49 -12.79,-29.16 -27.02,-38.03 -14.25,-8.87 -29.52,-11.47 -45.87,-7.7 -16.48,3.75 -29.11,12.74 -37.93,26.98 -8.81,14.22 -11.35,29.51 -7.59,45.84 l 30.95,135.23 c 3.76,16.47 12.77,29.12 27,38.01 14.24,8.89 29.46,11.46 45.67,7.75" /><path
         id="path52"
         style="fill:#ffffff;fill-opacity:1;fill-rule:nonzero;stroke:none"
         d="m 2428.57,1171.25 c 1.87,14.63 -4.44,22.87 -18.92,24.71 l -22.93,2.93 -10.3,-80.67 22.93,-2.93 c 6.04,-0.78 11.44,0.73 16.22,4.48 4.76,3.77 7.54,8.65 8.31,14.66 z m -14.97,63.67 c 21.18,-2.71 35.99,-10.53 44.43,-23.46 7.42,-11.3 9.95,-26.09 7.63,-44.31 l -4.66,-36.6 c -2.28,-17.85 -10.98,-32.07 -26.1,-42.68 l 14.12,-113.651 -41.12,5.25 -10.93,97.891 c -1.07,0.14 -2.21,0.28 -3.43,0.43 l -21.92,2.8 -12.12,-94.949 -38.02,4.871 32.17,252.068 59.95,-7.66" /><path
         id="path54"
         style="fill:#ffffff;fill-opacity:1;fill-rule:nonzero;stroke:none"
         d="m 2816.89,953.852 c -16.9,-0.18 -31.33,5.617 -43.27,17.32 -11.95,11.699 -18.01,25.937 -18.17,42.698 l -1.4,138.71 c -0.16,16.89 5.64,31.33 17.41,43.26 11.79,11.97 26.05,18.03 42.82,18.18 16.91,0.18 31.29,-5.62 43.17,-17.4 11.88,-11.8 17.91,-26.05 18.07,-42.81 l 0.3,-29.02 -39.75,-0.38 -0.3,29.79 c -0.07,6.09 -2.28,11.29 -6.64,15.57 -4.38,4.27 -9.6,6.38 -15.68,6.32 -6.09,-0.05 -11.23,-2.28 -15.46,-6.64 -4.21,-4.37 -6.29,-9.59 -6.22,-15.68 l 1.39,-139.1 c 0.07,-6.1 2.23,-11.25 6.54,-15.471 4.3,-4.199 9.49,-6.289 15.58,-6.23 6.09,0.082 11.27,2.242 15.55,6.562 4.29,4.299 6.4,9.469 6.33,15.569 l -0.35,35.1 39.74,0.39 0.37,-35.49 c 0.17,-16.92 -5.64,-31.291 -17.43,-43.17 -11.77,-11.891 -25.97,-17.91 -42.6,-18.078" /><path
         id="path56"
         style="fill:#ffffff;fill-opacity:1;fill-rule:nonzero;stroke:none"
         d="m 3105.63,1171.15 c -0.62,6.06 -3.24,11 -7.9,14.81 -4.67,3.81 -10.02,5.41 -16.07,4.8 -6.06,-0.6 -11.02,-3.24 -14.91,-7.91 -3.89,-4.67 -5.52,-10.02 -4.92,-16.07 l 13.86,-138.44 c 0.6,-6.05 3.26,-10.98 7.99,-14.79 4.74,-3.8 10.13,-5.41 16.18,-4.78 6.06,0.59 10.99,3.22 14.8,7.89 3.82,4.65 5.41,10.02 4.81,16.07 z m -26.77,57.66 c 16.83,1.68 31.7,-2.81 44.66,-13.48 12.95,-10.66 20.27,-24.33 21.94,-41.01 l 13.8,-138.01 c 1.69,-16.82 -2.81,-31.72 -13.46,-44.669 -10.66,-12.95 -24.33,-20.25 -41.02,-21.93 -16.81,-1.68 -31.65,2.809 -44.55,13.469 -12.89,10.672 -20.16,24.36 -21.84,41.02 l -13.81,138.03 c -1.67,16.81 2.81,31.7 13.47,44.64 10.66,12.97 24.27,20.28 40.81,21.94" /><path
         id="path58"
         style="fill:#ffffff;fill-opacity:1;fill-rule:nonzero;stroke:none"
         d="m 3357.57,1208.03 5.49,-101.04 27.86,5.51 z m 6.9,-138.79 2.18,-59.1 -39.15,-7.74 -6.87,257.66 51.73,10.21 91.02,-241.03 -39.53,-7.81 -20.13,55.56 -39.25,-7.75" /><path
         id="path60"
         style="fill:#ffffff;fill-opacity:1;fill-rule:nonzero;stroke:none"
         d="m 3731.06,1102.58 -99.87,-30.53 -74.28,242.99 36.65,11.21 63.14,-206.54 63.22,19.31 11.14,-36.44" /><path
         id="path62"
         style="fill:#ffffff;fill-opacity:1;fill-rule:nonzero;stroke:none"
         d="m 3918.17,1171.97 -35.55,-14.35 -95.17,235.58 35.54,14.36 95.18,-235.59" /><path
         id="path64"
         style="fill:#ffffff;fill-opacity:1;fill-rule:nonzero;stroke:none"
         d="m 4010.73,1452.4 -35.98,-19.16 -18.11,34.01 105.62,56.25 18.1,-34.03 -35.8,-19.06 101.3,-190.27 -33.84,-18.03 -101.29,190.29" /><path
         id="path66"
         style="fill:#ffffff;fill-opacity:1;fill-rule:nonzero;stroke:none"
         d="m 4365.75,1417.79 -31.32,-22.09 -146.48,207.66 31.32,22.07 146.48,-207.64" /><path
         id="path68"
         style="fill:#ffffff;fill-opacity:1;fill-rule:nonzero;stroke:none"
         d="m 4440.77,1739.49 c -4.25,4.32 -9.39,6.55 -15.41,6.6 -6.03,0.06 -11.2,-2.03 -15.56,-6.27 -4.35,-4.27 -6.57,-9.43 -6.69,-15.48 -0.11,-6.1 1.96,-11.29 6.22,-15.65 l 97.28,-99.45 c 4.26,-4.34 9.42,-6.53 15.49,-6.53 6.07,-0.03 11.28,2.09 15.63,6.35 4.35,4.24 6.56,9.38 6.62,15.41 0.06,6.02 -2.03,11.21 -6.28,15.57 z m -56.9,28.26 c 12.08,11.84 26.5,17.62 43.28,17.41 16.78,-0.26 31.03,-6.35 42.75,-18.32 l 97.01,-99.16 c 11.83,-12.07 17.62,-26.51 17.38,-43.29 -0.22,-16.75 -6.35,-31.03 -18.31,-42.73 -12.08,-11.86 -26.48,-17.6 -43.22,-17.3 -16.72,0.27 -30.95,6.38 -42.67,18.35 l -97.02,99.16 c -11.82,12.09 -17.62,26.51 -17.39,43.29 0.23,16.77 6.31,30.97 18.19,42.59" /><path
         id="path70"
         style="fill:#ffffff;fill-opacity:1;fill-rule:nonzero;stroke:none"
         d="m 4559.66,1979.14 173.05,-43.01 -147.22,86.82 19.48,33.03 219.04,-129.2 -20.9,-35.47 -167.07,37.32 140.28,-82.73 -19.47,-33.01 -219.06,129.18 21.87,37.07" /><path
         id="path72"
         style="fill:#ffffff;fill-opacity:1;fill-rule:nonzero;stroke:none"
         d="m 2789.99,1445 c -907.9,0 -1674.91,451.11 -1674.91,985.01 0,533.92 767.01,984.99 1674.91,984.99 907.89,0 1674.94,-451.07 1674.94,-984.99 0,-533.9 -767.05,-985.01 -1674.94,-985.01 z m 0,2013.08 c -931.24,0 -1717.98,-470.82 -1717.98,-1028.07 0,-557.24 786.74,-1028.04 1717.98,-1028.04 931.22,0 1717.97,470.8 1717.97,1028.04 0,557.25 -786.75,1028.07 -1717.97,1028.07" /><path
         id="path74"
         style="fill:#ffffff;fill-opacity:1;fill-rule:nonzero;stroke:none"
         d="m 2294.35,1843.77 -6.14,-23.57 -21.93,1.44 -28.32,-108.85 c -4.9,-18.81 -14.93,-32.15 -30.06,-39.96 -15.16,-7.83 -32.09,-9.29 -50.82,-4.41 -20.35,5.29 -35.17,14.43 -44.45,27.42 -9.3,13.01 -11.2,29.08 -5.75,48.24 l 0.48,0.72 38.02,-9.9 c -2.67,-10.25 -2.17,-18.36 1.52,-24.33 3.69,-5.96 9.68,-10.02 17.98,-12.17 7.22,-1.9 14.09,-0.69 20.58,3.57 6.5,4.26 11,11.25 13.54,20.98 l 28.33,108.83 -19.83,9.43 6.13,23.58 59.84,-15.59 20.88,-5.43" /><path
         id="path76"
         style="fill:#ffffff;fill-opacity:1;fill-rule:nonzero;stroke:none"
         d="m 2362.02,1741.05 27.56,-4.62 c 11.09,-1.86 19.81,-0.88 26.16,2.91 6.33,3.8 10.25,10.17 11.74,19.08 1.5,8.9 -0.07,16.46 -4.68,22.71 -4.61,6.25 -12.28,10.28 -23.02,12.07 l -28.23,4.73 z m 42.91,82.84 c 22.55,-3.79 39.38,-11.9 50.47,-24.38 11.09,-12.46 15.12,-27.79 12.08,-45.97 -1.67,-10 -5.81,-18.25 -12.42,-24.71 -6.59,-6.47 -15.46,-11.12 -26.58,-13.93 11.15,-5.41 18.62,-12.58 22.41,-21.5 3.79,-8.89 4.7,-19.3 2.69,-31.21 l -1.69,-10.08 c -0.73,-4.38 -0.43,-7.91 0.89,-10.63 1.33,-2.69 3.96,-4.61 7.87,-5.74 l 4.8,-1.5 -4.01,-24.01 -20.61,3.46 c -13,2.17 -21.56,7.21 -25.65,15.1 -4.1,7.87 -5.22,17.38 -3.37,28.48 l 1.9,11.3 c 1.61,9.65 0.3,17.64 -3.91,24.01 -4.22,6.37 -10.98,10.47 -20.31,12.3 l -32.6,5.45 -8.77,-52.36 20.59,-7.66 -4,-23.88 -82.24,13.78 3.99,23.87 21.82,0.55 23.87,142.56 -20.46,7.61 4.03,24.03 21.15,-3.54 68.06,-11.4" /><path
         id="path78"
         style="fill:#ffffff;fill-opacity:1;fill-rule:nonzero;stroke:none"
         d="m 2653.67,1696.72 c 1.54,20.78 -1.5,37.97 -9.16,51.58 -7.67,13.61 -19.97,21.06 -36.87,22.34 -16.93,1.25 -30.03,-4.19 -39.33,-16.46 -9.28,-12.25 -14.72,-28.83 -16.3,-49.81 l -0.25,-3.32 c -1.6,-21.15 1.34,-38.49 8.77,-52.05 7.44,-13.55 19.56,-20.95 36.39,-22.24 17.02,-1.27 30.28,4.24 39.81,16.52 9.52,12.27 15.09,28.99 16.67,50.12 z m 39.87,-6.35 c -2.21,-29.41 -12.46,-53.1 -30.73,-71.05 -18.28,-17.95 -41.02,-25.9 -68.23,-23.85 -27.13,2.05 -48.32,13.3 -63.55,33.77 -15.25,20.49 -21.77,45.43 -19.56,74.86 l 0.24,3.03 c 2.21,29.24 12.35,52.89 30.46,70.94 18.09,18.06 40.71,26.05 67.83,24.02 27.22,-2.05 48.54,-13.36 63.95,-33.95 15.42,-20.58 22.02,-45.5 19.82,-74.74 l -0.23,-3.03" /><path
         id="path80"
         style="fill:#ffffff;fill-opacity:1;fill-rule:nonzero;stroke:none"
         d="m 2893.91,1725.61 -30.02,-0.34 -4.43,26.82 c -4.01,3.91 -9.04,6.99 -15.1,9.24 -6.06,2.22 -13.2,3.32 -21.41,3.24 -17.52,-0.2 -30.94,-6.72 -40.25,-19.53 -9.31,-12.81 -13.86,-29.47 -13.65,-49.94 l 0.08,-7.03 c 0.22,-20.47 5.09,-37.07 14.63,-49.81 9.53,-12.71 22.89,-18.96 40.03,-18.79 7.93,0.08 15.17,1.31 21.75,3.67 6.56,2.39 11.62,5.57 15.18,9.57 l 3.86,26.88 30.01,0.31 0.43,-39.82 c -8.02,-9.49 -18.28,-17.09 -30.81,-22.79 -12.54,-5.71 -26.58,-8.66 -42.16,-8.81 -27.03,-0.3 -49.25,8.82 -66.69,27.36 -17.44,18.53 -26.3,42.46 -26.61,71.8 l -0.08,6.75 c -0.31,29.24 8.02,53.34 24.97,72.35 16.95,18.98 39.02,28.61 66.22,28.9 15.58,0.18 29.68,-2.53 42.28,-8.06 12.6,-5.53 23.05,-12.91 31.35,-22.13 l 0.42,-39.84" /><path
         id="path82"
         style="fill:#ffffff;fill-opacity:1;fill-rule:nonzero;stroke:none"
         d="m 2991.6,1599.2 -40.14,-2.85 -2.52,35.31 40.14,2.85 2.52,-35.31" /><path
         id="path84"
         style="fill:#ffffff;fill-opacity:1;fill-rule:nonzero;stroke:none"
         d="m 3037.1,1626.25 18.65,6.66 -12.27,92.01 -21.79,1.27 -3.23,24.14 58.54,7.81 4.62,-21.03 c 3.92,8.26 9.21,14.96 15.88,20.14 6.66,5.17 14.46,8.34 23.42,9.53 14.98,1.99 27.31,-1.14 36.98,-9.44 9.66,-8.3 15.84,-22.5 18.52,-42.61 l 8.61,-64.57 19.74,-1.53 3.21,-24.02 -76.5,-10.2 -3.21,24.01 16.59,6.4 -8.59,64.42 c -1.33,9.96 -4.29,16.76 -8.86,20.37 -4.58,3.63 -10.93,4.9 -19.06,3.83 -5.3,-0.73 -9.92,-2.42 -13.83,-5.14 -3.92,-2.71 -7.04,-6.21 -9.35,-10.53 l 10.61,-79.51 16.73,-1.97 3.2,-23.97 -75.41,-10.05 -3.2,23.98" /><path
         id="path86"
         style="fill:#ffffff;fill-opacity:1;fill-rule:nonzero;stroke:none"
         d="m 3287.62,1764.96 c -7.3,-1.56 -12.46,-5.62 -15.49,-12.11 -3.05,-6.52 -4.08,-14.41 -3.11,-23.73 l 0.56,-0.58 48.4,10.42 -0.76,3.5 c -1.8,8.4 -5.2,14.67 -10.21,18.81 -4.99,4.18 -11.46,5.39 -19.39,3.69 z m 29.67,-120.68 c -21.09,-4.53 -39.41,-1.41 -54.94,9.41 -15.53,10.8 -25.54,26.6 -30.03,47.42 l -1.16,5.41 c -4.68,21.74 -2.56,40.92 6.35,57.54 8.92,16.64 23.45,27.09 43.56,31.33 19.74,4.24 36.35,1.6 49.81,-7.97 13.48,-9.53 22.39,-24.45 26.75,-44.74 l 4.65,-21.49 -87.36,-18.81 -0.09,-0.88 c 2.8,-9.49 7.73,-16.73 14.78,-21.71 7.07,-4.99 15.51,-6.43 25.35,-4.3 8.74,1.87 15.81,4.31 21.19,7.3 5.39,3.03 11.11,7.15 17.15,12.41 l 15.92,-22.04 c -5.01,-6.09 -11.97,-11.77 -20.87,-17.09 -8.9,-5.31 -19.25,-9.23 -31.06,-11.79" /><path
         id="path88"
         style="fill:#ffffff;fill-opacity:1;fill-rule:nonzero;stroke:none"
         d="m 3426.93,1867.56 10.16,-35.2 25.25,7.29 7.87,-27.23 -25.24,-7.3 21.15,-73.23 c 1.61,-5.56 3.91,-9.21 6.91,-10.93 2.99,-1.76 6.44,-2.03 10.33,-0.92 2.66,0.76 4.95,1.54 6.88,2.34 1.94,0.8 4.06,1.82 6.38,3.09 l 11.43,-27.07 c -3.96,-2.6 -7.97,-4.85 -12.03,-6.74 -4.06,-1.87 -8.57,-3.55 -13.52,-4.98 -13.39,-3.89 -24.75,-3.16 -34.09,2.09 -9.34,5.27 -16.32,15.9 -20.93,31.82 l -21.19,73.36 -21.12,-6.12 -7.86,27.27 21.11,6.07 -10.17,35.24 38.68,11.15" /></g></g></svg>
